<?xml version="1.0" encoding="UTF-8"?><svg xmlns="http://www.w3.org/2000/svg" version="1.1" width="429" height="59">
<path d="M0 0 C1.21042969 -0.01611328 2.42085938 -0.03222656 3.66796875 -0.04882812 C4.83972656 -0.04947266 6.01148438 -0.05011719 7.21875 -0.05078125 C8.81106445 -0.05525269 8.81106445 -0.05525269 10.43554688 -0.05981445 C15.13381697 0.51099991 18.42032878 2.23282878 21.75 5.5625 C26.40835112 12.88276605 25.83443299 20.77400591 25.8125 29.1875 C25.82861328 30.41597656 25.84472656 31.64445312 25.86132812 32.91015625 C25.86556273 40.81193296 25.82122741 48.61170374 20.3125 54.75 C13.88512963 58.32076132 7.24514357 58.63206556 0.0625 58.5625 C-1.12956055 58.57410156 -1.12956055 58.57410156 -2.34570312 58.5859375 C-9.14008913 58.56382396 -15.96639852 58.30703733 -21.4375 54 C-29.29368257 43.76315605 -27.16353071 26.89530296 -25.8125 14.8125 C-24.89866367 9.11220628 -23.99591094 5.99097259 -19.5 2.3125 C-13.04040024 -0.29483142 -6.86778113 -0.01828483 0 0 Z M-14.5 14.3125 C-15.08601175 17.35661248 -15.08601175 17.35661248 -14.9609375 20.84375 C-14.95707031 22.12894531 -14.95320313 23.41414063 -14.94921875 24.73828125 C-14.93681152 25.40682129 -14.9244043 26.07536133 -14.91162109 26.76416016 C-14.87512477 28.80552126 -14.87060167 30.84506554 -14.87109375 32.88671875 C-15.11573323 39.99291572 -15.11573323 39.99291572 -12.5 46.3125 C-8.56215355 47.00653585 -4.55430119 46.82173494 -0.5625 46.8125 C1.10329102 46.85503906 1.10329102 46.85503906 2.80273438 46.8984375 C3.86685547 46.90101562 4.93097656 46.90359375 6.02734375 46.90625 C7.00437256 46.91333984 7.98140137 46.92042969 8.98803711 46.92773438 C11.68535315 46.53115042 11.68535315 46.53115042 13.31933594 44.12304688 C14.5929092 41.09133154 14.87358339 39.02441127 14.86328125 35.75 C14.86263672 34.70585938 14.86199219 33.66171875 14.86132812 32.5859375 C14.84521484 31.50570313 14.82910156 30.42546875 14.8125 29.3125 C14.81572266 28.23226563 14.81894531 27.15203125 14.82226562 26.0390625 C14.79321247 18.95140855 14.79321247 18.95140855 12.5 12.3125 C8.75291686 10.43895843 4.24852647 11.08449214 0.125 11.0625 C-0.8340625 11.041875 -1.793125 11.02125 -2.78125 11 C-4.16957031 10.99226562 -4.16957031 10.99226562 -5.5859375 10.984375 C-6.4320459 10.9750293 -7.2781543 10.96568359 -8.14990234 10.95605469 C-11.16043272 11.41266952 -12.4411875 12.05516332 -14.5 14.3125 Z " fill="#FDFDFD" transform="translate(403.5,-0.3125)"/>
<path d="M0 0 C1.21197052 -0.00855011 1.21197052 -0.00855011 2.44842529 -0.01727295 C4.16335739 -0.02673949 5.87830781 -0.03326347 7.59326172 -0.03710938 C10.20963708 -0.04678353 12.82521653 -0.07777731 15.44140625 -0.109375 C17.10676616 -0.11590802 18.77213171 -0.12115732 20.4375 -0.125 C21.21788635 -0.1373468 21.99827271 -0.1496936 22.80230713 -0.16241455 C27.3969642 -0.14370902 30.33729821 0.3537011 33.984375 3.203125 C37.823237 7.7178892 38.59002388 11.4318215 38.421875 17.203125 C38.42896484 17.88890625 38.43605469 18.5746875 38.44335938 19.28125 C38.3852461 23.96607414 37.4673252 27.24222825 34.984375 31.203125 C32.296875 33.078125 32.296875 33.078125 29.984375 34.203125 C31.54151248 39.6285198 34.12678709 43.85081305 37.23828125 48.5234375 C39.36122275 51.82060671 39.984375 53.1457484 39.984375 57.203125 C36.85495035 58.76783733 33.37355277 58.90014458 29.984375 58.203125 C25.58733701 54.90089606 23.30907236 49.81586752 20.734375 45.078125 C20.27546875 44.25441406 19.8165625 43.43070313 19.34375 42.58203125 C15.984375 36.47316778 15.984375 36.47316778 15.984375 34.203125 C11.364375 34.203125 6.744375 34.203125 1.984375 34.203125 C1.984375 41.793125 1.984375 49.383125 1.984375 57.203125 C-1.26865544 58.82964022 -4.40788102 58.31765656 -8.015625 58.203125 C-9.72055381 56.49819619 -9.1436692 54.35778239 -9.15457153 52.08410645 C-9.1525473 51.37057007 -9.15052307 50.65703369 -9.1484375 49.921875 C-9.14939423 49.19319214 -9.15035095 48.46450928 -9.15133667 47.71374512 C-9.15201835 46.1703279 -9.15016488 44.62690783 -9.14599609 43.08349609 C-9.14064762 40.713151 -9.14594142 38.34299541 -9.15234375 35.97265625 C-9.15168297 34.47656208 -9.1504018 32.98046803 -9.1484375 31.484375 C-9.15046173 30.77083862 -9.15248596 30.05730225 -9.15457153 29.32214355 C-9.13057691 24.31807691 -9.13057691 24.31807691 -8.015625 23.203125 C-5.58116587 23.0556281 -3.17133933 22.96823965 -0.734375 22.921875 C0.35864929 22.89426086 0.35864929 22.89426086 1.47375488 22.86608887 C4.60393128 22.78715996 7.73433139 22.7195875 10.86474609 22.65087891 C13.1443175 22.59925346 15.42369772 22.54196239 17.703125 22.484375 C18.41666138 22.47079956 19.13019775 22.45722412 19.86535645 22.4432373 C23.21137499 22.64385262 23.21137499 22.64385262 25.984375 21.203125 C26.14491315 19.32990552 26.14491315 19.32990552 26.109375 17.203125 C26.11195313 16.48125 26.11453125 15.759375 26.1171875 15.015625 C26.18132776 13.18223085 26.18132776 13.18223085 24.984375 12.203125 C22.46556983 12.04324009 19.97095234 11.94378275 17.44921875 11.88671875 C16.31934288 11.8555471 16.31934288 11.8555471 15.16664124 11.82374573 C12.7518151 11.75817075 10.33687702 11.69932879 7.921875 11.640625 C6.28839971 11.5974473 4.6549359 11.55383327 3.02148438 11.50976562 C-0.99076964 11.40248138 -5.00313664 11.30123679 -9.015625 11.203125 C-9.04250651 9.55737934 -9.06196623 7.91151087 -9.078125 6.265625 C-9.08972656 5.34910156 -9.10132813 4.43257813 -9.11328125 3.48828125 C-8.89629739 -1.589141 -3.96999148 0.02139802 0 0 Z " fill="#FDFDFD" transform="translate(324.015625,-0.203125)"/>
<path d="M0 0 C3.3 0 6.6 0 10 0 C10 7.59 10 15.18 10 23 C18.25 23 26.5 23 35 23 C34.96045824 16.17891527 34.96045824 16.17891527 34.90991211 9.35791016 C34.90741455 8.51019043 34.90491699 7.6624707 34.90234375 6.7890625 C34.89710693 5.91975098 34.89187012 5.05043945 34.88647461 4.15478516 C35 2 35 2 36 0 C39.3 0 42.6 0 46 0 C46.02312883 7.41459942 46.04091785 14.82919111 46.05181217 22.24381924 C46.05703982 25.68640348 46.06413531 29.12896312 46.07543945 32.5715332 C46.08834235 36.52555043 46.09322918 40.47955756 46.09765625 44.43359375 C46.10281754 45.67523788 46.10797882 46.91688202 46.11329651 48.19615173 C46.11337204 49.33725906 46.11344757 50.47836639 46.11352539 51.65405273 C46.115746 52.664431 46.11796661 53.67480927 46.12025452 54.71580505 C46 57 46 57 45 58 C39.26388889 58.27314815 39.26388889 58.27314815 37 58 C35 56 35 56 34.77294922 53.75341797 C34.78342285 52.84221191 34.79389648 51.93100586 34.8046875 50.9921875 C34.80968262 50.1038623 34.81467773 49.21553711 34.81982422 48.30029297 C34.83803223 47.16994629 34.85624023 46.03959961 34.875 44.875 C34.91625 41.28625 34.9575 37.6975 35 34 C26.75 34 18.5 34 10 34 C10.03958834 41.52432774 10.03958834 41.52432774 10.09008789 49.04858398 C10.09258545 49.98001221 10.09508301 50.91144043 10.09765625 51.87109375 C10.10289307 52.82943115 10.10812988 53.78776855 10.11352539 54.77514648 C10 57 10 57 9 58 C3.26388889 58.27314815 3.26388889 58.27314815 1 58 C-1 56 -1 56 -1.24723816 53.6782074 C-1.24581314 52.70859573 -1.24438812 51.73898407 -1.24291992 50.73999023 C-1.24599655 49.64222763 -1.24907318 48.54446503 -1.25224304 47.41343689 C-1.24505753 46.22383865 -1.23787201 45.03424042 -1.23046875 43.80859375 C-1.23001053 42.59301285 -1.22955231 41.37743195 -1.2290802 40.12501526 C-1.22605496 37.55183945 -1.21816063 34.97866552 -1.20581055 32.40551758 C-1.18756053 28.45061816 -1.18530075 24.49595273 -1.18554688 20.54101562 C-1.18063169 18.04687296 -1.17480336 15.55273189 -1.16796875 13.05859375 C-1.16685593 11.86697128 -1.1657431 10.67534882 -1.16459656 9.44761658 C-1.15821671 8.35300613 -1.15183685 7.25839569 -1.14526367 6.13061523 C-1.14145187 5.16179916 -1.13764008 4.19298309 -1.13371277 3.19480896 C-1 1 -1 1 0 0 Z " fill="#FDFDFD" transform="translate(255,0)"/>
<path d="M0 0 C0.31158877 10.68057055 -0.24050884 21.28248627 -0.9375 31.9375 C-1.00284943 32.94950974 -1.00284943 32.94950974 -1.06951904 33.98196411 C-1.54941477 41.34486863 -2.10750311 48.67509312 -3 56 C-6.91630223 57.30543408 -8.04915817 56.36865443 -11.76171875 54.69140625 C-13.43911133 53.94213867 -13.43911133 53.94213867 -15.15039062 53.17773438 C-16.31763672 52.64470703 -17.48488281 52.11167969 -18.6875 51.5625 C-20.45577148 50.76875977 -20.45577148 50.76875977 -22.25976562 49.95898438 C-25.17718487 48.64791743 -28.09024189 47.32796239 -31 46 C-32.27280294 47.41489734 -33.5431583 48.83199666 -34.8125 50.25 C-35.52019531 51.03890625 -36.22789063 51.8278125 -36.95703125 52.640625 C-38.74168935 54.7016833 -40.39759062 56.79605523 -42 59 C-43.94628906 58.73901367 -43.94628906 58.73901367 -46 58 C-46.46148541 55.94638994 -46.90903495 53.88811039 -47.26708984 51.81396484 C-48.12434508 47.37340008 -49.09844443 43.55402177 -52 40 C-59.24286061 36.03058868 -67.89684681 35.01922914 -76 34 C-76 32.68 -76 31.36 -76 30 C-57.59328867 22.17641987 -39.17218665 14.38853145 -20.61538696 6.92633057 C-19.08243796 6.30970563 -17.55018694 5.69134257 -16.01864624 5.07122803 C-13.88569018 4.20863143 -11.75003399 3.35314088 -9.61328125 2.5 C-8.40454346 2.0153125 -7.19580566 1.530625 -5.95043945 1.03125 C-3 -0 -3 -0 0 0 Z M-6.8203125 8.6875 C-11.08466661 12.96630955 -15.1862642 17.30229174 -19.109375 21.89453125 C-22.13302248 25.26177503 -25.4054188 28.3737094 -28.66796875 31.5078125 C-31.18673757 34.19956209 -33.03832099 36.88837123 -35 40 C-30.91896703 41.81771173 -26.83479613 43.62826264 -22.75 45.4375 C-21.59113281 45.95376953 -20.43226562 46.47003906 -19.23828125 47.00195312 C-17.56572266 47.74155273 -17.56572266 47.74155273 -15.859375 48.49609375 C-14.83295898 48.95169678 -13.80654297 49.4072998 -12.74902344 49.87670898 C-10.48643526 50.80123547 -8.38434528 51.49868891 -6 52 C-5.70829736 48.00266535 -5.42389635 44.00487621 -5.14550781 40.0065918 C-5.00427412 37.99827708 -4.85768911 35.99034093 -4.7109375 33.98242188 C-4.08716222 24.95995801 -3.88317632 16.04166578 -4 7 C-5.29147025 6.88669213 -5.29147025 6.88669213 -6.8203125 8.6875 Z M-30.81640625 15.04296875 C-31.58750229 15.36783768 -32.35859833 15.6927066 -33.15306091 16.02742004 C-35.62677234 17.07184131 -38.09465469 18.12930217 -40.5625 19.1875 C-42.1981872 19.88175655 -43.8342512 20.57512607 -45.47070312 21.26757812 C-47.84473221 22.27237374 -50.21843095 23.27787188 -52.59048462 24.287323 C-58.03061475 26.60113765 -63.49199412 28.85183403 -69 31 C-60.43944666 35.4864329 -60.43944666 35.4864329 -51 36 C-44.73036855 33.03497303 -39.46466944 28.30182588 -34.20751953 23.84863281 C-31.17147019 21.30616813 -28.00570404 18.96426461 -24.8125 16.625 C-23.20767588 15.41753999 -21.6032075 14.20960566 -20 13 C-24.22778738 11.59073754 -26.9205771 13.3558683 -30.81640625 15.04296875 Z M-31.02734375 24.9921875 C-31.81947266 25.61480469 -32.61160156 26.23742187 -33.42773438 26.87890625 C-34.25595703 27.53761719 -35.08417969 28.19632813 -35.9375 28.875 C-37.57095129 30.1649029 -39.2050399 31.45399925 -40.83984375 32.7421875 C-41.56550537 33.3182373 -42.29116699 33.89428711 -43.03881836 34.48779297 C-44.64339638 35.72503389 -46.31411011 36.8760734 -48 38 C-47.01 41.63 -46.02 45.26 -45 49 C-44.34 49 -43.68 49 -43 49 C-42.87262451 48.3709375 -42.74524902 47.741875 -42.61401367 47.09375 C-40.8368187 39.81786586 -37.80389196 35.9530202 -32.3125 31 C-30.92973417 29.71246597 -29.55061297 28.42100269 -28.17578125 27.125 C-27.56645752 26.57070313 -26.95713379 26.01640625 -26.3293457 25.4453125 C-24.77434591 24.08194284 -24.77434591 24.08194284 -25 22 C-27.81779171 22 -28.83107404 23.25285326 -31.02734375 24.9921875 Z M-38 43 C-38.33 44.65 -38.66 46.3 -39 48 C-37.45833358 46.62514468 -37.45833358 46.62514468 -36 45 C-36 44.34 -36 43.68 -36 43 C-36.66 43 -37.32 43 -38 43 Z " fill="#FDFDFD" transform="translate(76,0)"/>
<path d="M0 0 C1.26650391 -0.01224609 2.53300781 -0.02449219 3.83789062 -0.03710938 C5.04509766 -0.03904297 6.25230469 -0.04097656 7.49609375 -0.04296875 C9.1675647 -0.04913208 9.1675647 -0.04913208 10.87280273 -0.05541992 C13.5625 0.1875 13.5625 0.1875 15.5625 2.1875 C15.76282055 5.02392554 15.84222705 7.76042607 15.828125 10.59765625 C15.83099518 11.85986244 15.83099518 11.85986244 15.83392334 13.14756775 C15.83528645 14.93391213 15.83158126 16.72026636 15.82324219 18.5065918 C15.81263738 21.21491418 15.82308438 23.922559 15.8359375 26.63085938 C15.8346141 28.36979311 15.832048 30.10872643 15.828125 31.84765625 C15.83217346 32.64800797 15.83622192 33.44835968 15.84039307 34.27296448 C15.78644312 40.89376867 15.30986105 47.44996769 11.6875 53.125 C5.09945685 59.51927718 -4.63641233 58.39435116 -13.25 58.4375 C-14.29865234 58.458125 -15.34730469 58.47875 -16.42773438 58.5 C-17.92723633 58.50773437 -17.92723633 58.50773437 -19.45703125 58.515625 C-20.36557861 58.5249707 -21.27412598 58.53431641 -22.21020508 58.54394531 C-22.9452124 58.42631836 -23.68021973 58.30869141 -24.4375 58.1875 C-26.75082486 54.71751271 -26.77707563 53.26240752 -26.4375 49.1875 C-25.7775 48.1975 -25.1175 47.2075 -24.4375 46.1875 C-21.82373047 45.75512695 -21.82373047 45.75512695 -18.5546875 45.67578125 C-17.38808594 45.64033203 -16.22148437 45.60488281 -15.01953125 45.56835938 C-13.18455078 45.53452148 -13.18455078 45.53452148 -11.3125 45.5 C-10.08144531 45.46583984 -8.85039062 45.43167969 -7.58203125 45.39648438 C-4.5339449 45.31378436 -1.48615429 45.24470573 1.5625 45.1875 C3.20487451 40.83664823 3.84883045 37.11749364 3.9765625 32.4765625 C4.01523438 31.23261719 4.05390625 29.98867188 4.09375 28.70703125 C4.1246875 27.42183594 4.155625 26.13664062 4.1875 24.8125 C4.22617188 23.50410156 4.26484375 22.19570313 4.3046875 20.84765625 C4.39869957 17.62774284 4.48435821 14.4078312 4.5625 11.1875 C3.27472656 11.19910156 1.98695313 11.21070313 0.66015625 11.22265625 C-1.01822772 11.2320327 -2.69661326 11.24113305 -4.375 11.25 C-5.65020508 11.26256836 -5.65020508 11.26256836 -6.95117188 11.27539062 C-7.76005859 11.27861328 -8.56894531 11.28183594 -9.40234375 11.28515625 C-10.1512085 11.29039307 -10.90007324 11.29562988 -11.67163086 11.30102539 C-13.4375 11.1875 -13.4375 11.1875 -14.4375 10.1875 C-14.5354057 8.69011876 -14.56724864 7.18807108 -14.5625 5.6875 C-14.56507813 4.8728125 -14.56765625 4.058125 -14.5703125 3.21875 C-14.20591767 -2.35434745 -4.15445581 0.00210779 0 0 Z " fill="#FDFDFD" transform="translate(225.4375,-0.1875)"/>
<path d="M0 0 C0.85761429 0.00328812 1.71522858 0.00657623 2.59883118 0.00996399 C4.40686663 0.02036961 6.21486904 0.04029384 8.02270508 0.0690918 C10.80112897 0.11328678 13.57868953 0.13054473 16.35742188 0.14257812 C18.11329382 0.15599716 19.86915507 0.17091874 21.625 0.1875 C22.87805183 0.1985804 22.87805183 0.1985804 24.15641785 0.20988464 C29.99498445 0.30748445 29.99498445 0.30748445 31.11328125 1.42578125 C31.21118695 2.92316249 31.24302989 4.42521017 31.23828125 5.92578125 C31.24214844 7.1478125 31.24214844 7.1478125 31.24609375 8.39453125 C31.11328125 10.42578125 31.11328125 10.42578125 30.11328125 11.42578125 C27.73759605 11.51417795 25.39119451 11.5410843 23.015625 11.5234375 C21.95233727 11.52131508 21.95233727 11.52131508 20.86756897 11.51914978 C18.59526413 11.51353568 16.3230565 11.50098088 14.05078125 11.48828125 C12.51367329 11.48326806 10.9765638 11.47870484 9.43945312 11.47460938 C5.66402483 11.46356167 1.88866954 11.44628766 -1.88671875 11.42578125 C-1.57853519 12.73930148 -1.2650421 14.05157697 -0.94921875 15.36328125 C-0.77519531 16.09417969 -0.60117188 16.82507813 -0.421875 17.578125 C-0.04784306 19.42548023 -0.04784306 19.42548023 1.11328125 20.42578125 C3.24573607 20.57217058 5.38273462 20.65323937 7.51953125 20.70703125 C9.47052734 20.76310547 9.47052734 20.76310547 11.4609375 20.8203125 C12.84503795 20.85602065 14.22915293 20.89116996 15.61328125 20.92578125 C18.31142476 20.9932506 21.00912994 21.06698998 23.70703125 21.14453125 C24.91037109 21.17482422 26.11371094 21.20511719 27.35351562 21.23632812 C30.11328125 21.42578125 30.11328125 21.42578125 31.11328125 22.42578125 C31.18572178 24.44542324 31.19705313 26.46745249 31.17578125 28.48828125 C31.16675781 29.59300781 31.15773437 30.69773437 31.1484375 31.8359375 C31.13683594 32.69058594 31.12523437 33.54523437 31.11328125 34.42578125 C26.38108363 34.52505278 21.64949912 34.59743758 16.91650391 34.64550781 C15.30832351 34.66555752 13.70021542 34.69280489 12.09228516 34.72753906 C9.77358105 34.77635389 7.455845 34.79881553 5.13671875 34.81640625 C4.06760757 34.84737396 4.06760757 34.84737396 2.97689819 34.87896729 C-2.12714373 34.88123417 -4.95763459 33.62693076 -8.88671875 30.42578125 C-13.00586567 24.88623884 -13.10695893 19.07364522 -13.19921875 12.36328125 C-13.22822266 11.65623047 -13.25722656 10.94917969 -13.28710938 10.22070312 C-13.32588898 7.04375858 -13.1991047 4.89410098 -11.41552734 2.22021484 C-7.68997445 -0.42342425 -4.46124213 -0.09418578 0 0 Z " fill="#FDFDFD" transform="translate(154.88671875,22.57421875)"/>
<path d="M0 0 C1.37478516 0.01740234 1.37478516 0.01740234 2.77734375 0.03515625 C3.69644531 0.04417969 4.61554688 0.05320313 5.5625 0.0625 C6.27277344 0.07410156 6.98304687 0.08570313 7.71484375 0.09765625 C7.73466309 1.24766113 7.75448242 2.39766602 7.77490234 3.58251953 C7.85120421 7.8654501 7.93988321 12.14805181 8.03222656 16.43066406 C8.07041497 18.28118376 8.10528526 20.13177512 8.13671875 21.98242188 C8.18259016 24.64869732 8.24054734 27.31448373 8.30078125 29.98046875 C8.31233246 30.80257843 8.32388367 31.62468811 8.33578491 32.47171021 C8.45231663 37.04834153 8.98728801 40.78785929 10.71484375 45.09765625 C11.92599854 45.12738525 11.92599854 45.12738525 13.16162109 45.15771484 C16.8047025 45.25271524 20.44719061 45.36249537 24.08984375 45.47265625 C25.36085938 45.50359375 26.631875 45.53453125 27.94140625 45.56640625 C29.153125 45.60507812 30.36484375 45.64375 31.61328125 45.68359375 C32.73395996 45.71501465 33.85463867 45.74643555 35.00927734 45.77880859 C37.71484375 46.09765625 37.71484375 46.09765625 39.71484375 48.09765625 C39.98046875 49.97265625 39.98046875 49.97265625 39.96484375 52.09765625 C39.97257812 53.14953125 39.97257812 53.14953125 39.98046875 54.22265625 C39.71484375 56.09765625 39.71484375 56.09765625 37.71484375 58.09765625 C35.42749023 58.35644531 35.42749023 58.35644531 32.5859375 58.36328125 C31.03229492 58.36714844 31.03229492 58.36714844 29.44726562 58.37109375 C28.35994141 58.36335938 27.27261719 58.355625 26.15234375 58.34765625 C25.09208984 58.35539062 24.03183594 58.363125 22.93945312 58.37109375 C7.4795426 58.33294468 7.4795426 58.33294468 1.77734375 53.72265625 C-3.50746447 46.9965367 -3.43785091 40.05573693 -3.41796875 31.796875 C-3.41892548 30.91989456 -3.4198822 30.04291412 -3.42086792 29.13935852 C-3.4215456 27.29627409 -3.41972019 25.45318721 -3.41552734 23.61010742 C-3.41014098 20.77712735 -3.4155027 17.94430351 -3.421875 15.11132812 C-3.42121478 13.31901007 -3.41993477 11.5266921 -3.41796875 9.734375 C-3.41999298 8.88340744 -3.42201721 8.03243988 -3.42410278 7.15568542 C-3.39582181 0.14512059 -3.39582181 0.14512059 0 0 Z " fill="#FDFDFD" transform="translate(89.28515625,-0.09765625)"/>
<path d="M0 0 C1.36560059 0.00303635 1.36560059 0.00303635 2.75878906 0.00613403 C3.68723633 0.00517731 4.61568359 0.00422058 5.57226562 0.00323486 C7.53938871 0.00255298 9.50651403 0.00440781 11.47363281 0.00857544 C14.49581932 0.01392358 17.51785721 0.00863071 20.54003906 0.00222778 C22.44628939 0.00288856 24.35253963 0.00416972 26.25878906 0.00613403 C27.16918945 0.0041098 28.07958984 0.00208557 29.01757812 0 C35.39383938 0.02399685 35.39383938 0.02399685 36.50878906 1.13894653 C36.60669476 2.63632778 36.63853771 4.13837545 36.63378906 5.63894653 C36.63765625 6.86097778 36.63765625 6.86097778 36.64160156 8.10769653 C36.50878906 10.13894653 36.50878906 10.13894653 35.50878906 11.13894653 C32.41797441 11.24011574 29.34996351 11.27863211 26.25878906 11.27175903 C25.3303418 11.27271576 24.40189453 11.27367249 23.4453125 11.2746582 C21.47818942 11.27534008 19.5110641 11.27348525 17.54394531 11.26931763 C14.5217588 11.26396948 11.49972092 11.26926236 8.47753906 11.27566528 C6.57128873 11.2750045 4.6650385 11.27372334 2.75878906 11.27175903 C1.39318848 11.27479538 1.39318848 11.27479538 0 11.27789307 C-6.37626125 11.25389622 -6.37626125 11.25389622 -7.49121094 10.13894653 C-7.58911663 8.64156529 -7.62095958 7.13951761 -7.61621094 5.63894653 C-7.61878906 4.82425903 -7.62136719 4.00957153 -7.62402344 3.17019653 C-7.32806669 -1.35620073 -3.71976723 0.01399922 0 0 Z " fill="#FDFDFD" transform="translate(149.4912109375,-0.138946533203125)"/>
</svg>