<svg xmlns="http://www.w3.org/2000/svg" width="429" height="59"><path fill="#fdfdfd" d="m403.5-.313 3.668-.048 3.55-.002 3.218-.01c4.698.571 7.984 2.293 11.314 5.623 4.658 7.32 4.084 15.212 4.063 23.625l.048 3.723c.005 7.901-.04 15.701-5.548 21.84-6.428 3.57-13.068 3.882-20.25 3.812l-2.409.023c-6.794-.022-13.62-.278-19.091-4.586-7.857-10.236-5.727-27.104-4.375-39.187C378.6 8.8 379.504 5.678 384 2c6.46-2.607 12.632-2.33 19.5-2.313M389 14c-.586 3.044-.586 3.044-.46 6.531l.01 3.895.038 2.026c.037 2.041.041 4.08.04 6.122-.244 7.106-.244 7.106 2.372 13.426 3.938.694 7.946.51 11.938.5l3.365.086 3.224.008 2.961.021c2.697-.396 2.697-.396 4.331-2.804 1.274-3.032 1.555-5.1 1.544-8.374l-.002-3.164-.048-3.273.01-3.273c-.03-7.088-.03-7.088-2.323-13.727-3.747-1.874-8.251-1.228-12.375-1.25l-2.906-.063-2.805-.015-2.564-.028c-3.01.456-4.291 1.099-6.35 3.356M324.016-.203l2.448-.017q2.572-.015 5.145-.02c2.616-.01 5.232-.04 7.848-.073q2.497-.009 4.996-.015l2.365-.038C351.413-.346 354.353.151 358 3c3.839 4.515 4.606 8.229 4.438 14l.021 2.078c-.058 4.685-.976 7.961-3.459 11.922-2.688 1.875-2.688 1.875-5 3 1.557 5.425 4.142 9.648 7.254 14.32C363.377 51.617 364 52.943 364 57c-3.13 1.565-6.61 1.697-10 1-4.397-3.302-6.675-8.387-9.25-13.125l-1.39-2.496C340 36.27 340 36.27 340 34h-14v23c-3.253 1.627-6.392 1.115-10 1-1.705-1.705-1.128-3.845-1.139-6.119l.006-2.162-.003-2.208q0-2.316.006-4.63c.005-2.371 0-4.741-.007-7.111q0-2.245.004-4.489l-.006-2.162c.024-5.004.024-5.004 1.139-6.119 2.434-.147 4.844-.235 7.281-.281l2.208-.056c3.13-.079 6.261-.147 9.391-.215q3.42-.08 6.839-.167l2.162-.04c3.346.2 3.346.2 6.119-1.241.16-1.873.16-1.873.125-4l.008-2.188c.064-1.833.064-1.833-1.133-2.812-2.519-.16-5.013-.26-7.535-.316l-2.283-.063q-3.623-.097-7.245-.184l-4.9-.13Q321.02 11.146 315 11a758 758 0 0 1-.063-4.938l-.035-2.777c.217-5.077 5.144-3.467 9.114-3.488"/><path fill="#fdfdfd" d="M255 0h10v23h25c-.04-6.821-.04-6.821-.09-13.642l-.008-2.569-.016-2.634C290 2 290 2 291 0h10q.034 11.123.052 22.244.007 5.163.023 10.328c.013 3.954.018 7.908.023 11.862l.015 3.762v3.458l.007 3.062C301 57 301 57 300 58c-5.736.273-5.736.273-8 0-2-2-2-2-2.227-4.247.01-.91.02-1.822.032-2.76l.015-2.693.055-3.425L290 34h-25c.04 7.524.04 7.524.09 15.049l.008 2.822.016 2.904C265 57 265 57 264 58c-5.736.273-5.736.273-8 0-2-2-2-2-2.247-4.322l.004-2.938-.01-3.327.023-3.604v-3.684q.006-3.86.024-7.72c.018-3.954.02-7.909.02-11.864l.018-7.482.003-3.611.02-3.317.011-2.936C254 1 254 1 255 0M76 0c.312 10.68-.24 21.282-.938 31.938l-.132 2.044C74.45 41.345 73.892 48.675 73 56c-3.916 1.305-5.05.369-8.762-1.309l-3.388-1.513-3.538-1.615-3.572-1.604Q49.365 47.992 45 46a2337 2337 0 0 0-3.813 4.25l-2.144 2.39A95 95 0 0 0 34 59c-1.946-.261-1.946-.261-4-1-.461-2.054-.909-4.112-1.267-6.186-.857-4.44-1.831-8.26-4.733-11.814-7.243-3.97-15.897-4.98-24-6v-4c18.407-7.824 36.828-15.611 55.385-23.074q2.3-.925 4.596-1.855A1559 1559 0 0 1 66.386 2.5l3.664-1.469C73 0 73 0 76 0m-6.82 8.688c-4.265 4.278-8.366 8.614-12.29 13.207-3.023 3.367-6.295 6.479-9.558 9.613C44.813 34.2 42.962 36.888 41 40q6.122 2.725 12.25 5.438l3.512 1.564 3.379 1.494 3.11 1.38C65.514 50.802 67.616 51.5 70 52q.438-5.996.854-11.993.214-3.013.435-6.025c.624-9.022.828-17.94.711-26.982-1.291-.113-1.291-.113-2.82 1.688m-23.996 6.355-2.337.984a1445 1445 0 0 0-7.41 3.16q-2.453 1.042-4.908 2.08-3.56 1.506-7.12 3.02A585 585 0 0 1 7 31c8.562 4.486 8.562 4.486 18.001 5 6.27-2.965 11.535-7.698 16.792-12.151 3.037-2.543 6.202-4.885 9.395-7.224Q53.596 14.815 56 13c-4.228-1.41-6.92.356-10.816 2.043m-.211 9.95c-.792.622-1.585 1.244-2.4 1.886l-2.51 1.996q-2.45 1.935-4.903 3.867l-2.199 1.746C31.357 35.725 29.686 36.876 28 38l3 11h2l.386-1.906c1.777-7.276 4.81-11.141 10.301-16.094a923 923 0 0 0 4.137-3.875l1.847-1.68C51.226 24.082 51.226 24.082 51 22c-2.818 0-3.831 1.253-6.027 2.992M38 43l-1 5c1.542-1.375 1.542-1.375 3-3v-2ZM225.438-.188l3.837-.037 3.659-.005 3.376-.013C239 0 239 0 241 2c.2 2.836.28 5.573.266 8.41l.005 2.55q.002 2.68-.01 5.36c-.01 2.707 0 5.415.012 8.123l-.008 5.217.013 2.425c-.054 6.621-.53 13.177-4.153 18.853-6.588 6.394-16.324 5.269-24.938 5.312l-3.177.063-3.03.015-2.753.028L201 58c-2.313-3.47-2.34-4.925-2-9l2-3c2.614-.432 2.614-.432 5.883-.512l3.535-.107 3.707-.069 3.73-.103q4.573-.124 9.145-.209c1.642-4.35 2.286-8.07 2.414-12.71l.117-3.77.094-3.895.117-3.965q.141-4.83.258-9.66l-3.902.035q-2.518.015-5.036.027l-2.576.026-2.45.01-2.27.016C212 11 212 11 211 10c-.098-1.497-.13-3-.125-4.5l-.008-2.469c.365-5.573 10.416-3.216 14.57-3.219"/><path fill="#fdfdfd" d="m154.887 22.574 2.599.01q2.712.015 5.423.06c2.779.044 5.556.06 8.335.073q2.634.02 5.268.045l2.531.022c5.839.098 5.839.098 6.957 1.216.098 1.497.13 3 .125 4.5l.008 2.469C186 33 186 33 185 34a158 158 0 0 1-7.098.098l-2.148-.005c-2.272-.005-4.544-.018-6.816-.03q-2.307-.008-4.612-.014Q158.664 34.032 153 34q.463 1.97.938 3.938l.527 2.214C154.839 42 154.839 42 156 43c2.132.146 4.27.227 6.406.281l3.942.114 4.152.105q4.047.101 8.094.219l3.646.092C185 44 185 44 186 45c.072 2.02.084 4.042.063 6.063l-.028 3.347L186 57q-7.098.149-14.197.22-2.412.03-4.824.082c-2.319.049-4.636.071-6.956.089l-2.16.062C152.76 57.455 149.93 56.201 146 53c-4.12-5.54-4.22-11.352-4.313-18.063l-.087-2.142c-.04-3.177.088-5.327 1.871-8 3.726-2.644 6.954-2.315 11.416-2.22"/><path fill="#fdfdfd" d="m89.285-.098 2.778.036 2.785.027L97 0l.06 3.485c.076 4.283.165 8.565.257 12.848q.058 2.775.105 5.552c.046 2.666.104 5.332.164 7.998l.035 2.491c.116 4.577.651 8.316 2.379 12.626l2.447.06c3.643.095 7.285.205 10.928.315 1.271.03 2.542.062 3.852.094l3.671.117 3.396.095C127 46 127 46 129 48c.266 1.875.266 1.875.25 4l.016 2.125C129 56 129 56 127 58c-2.287.259-2.287.259-5.129.266l-3.139.007-3.294-.023-3.213.023c-15.46-.038-15.46-.038-21.162-4.648-5.285-6.726-5.216-13.667-5.196-21.926l-.003-2.657q0-2.764.006-5.53.005-4.249-.007-8.498 0-2.69.004-5.377l-.006-2.579c.028-7.01.028-7.01 3.424-7.156M149.491-.139l2.759.006 2.813-.003q2.952 0 5.902.006c3.022.005 6.044 0 9.066-.007q2.86 0 5.719.004l2.759-.006c6.376.024 6.376.024 7.491 1.139.098 1.497.13 3 .125 4.5l.008 2.469C186 10 186 10 185 11c-3.09.101-6.159.14-9.25.133l-2.813.003q-2.952 0-5.902-.006-4.533-.006-9.066.007-2.86 0-5.719-.004l-2.759.006c-6.376-.024-6.376-.024-7.491-1.139-.098-1.497-.13-3-.125-4.5l-.008-2.469c.296-4.526 3.904-3.156 7.624-3.17"/></svg>